<svg xmlns="http://www.w3.org/2000/svg" xmlns:xlink="http://www.w3.org/1999/xlink" viewBox="778.662 1450 101.893 107.938"><defs><style>.a{fill:none;}.b{clip-path:url(#a);}.c{fill:#b3b3b3;}.d{fill:#dd1b16;}.e{fill:#f2f2f2;}</style><clipPath id="a"><rect class="a" width="101.893" height="107.938"/></clipPath></defs><g transform="translate(119 -214)"><g class="b" transform="translate(659.662 1664)"><path class="c" d="M55.336,1.026,4.553,18.9l8.024,66.535L55.39,108.964,98.424,85.115l8.022-66.533Z" transform="translate(-4.553 -1.026)"/><path class="d" d="M109.834,23.371,63.672,7.629v96.657l38.686-21.411Z" transform="translate(-13.007 -1.97)"/><path class="d" d="M11.2,23.655,18.079,83.16l38.089,21.126V7.627Z" transform="translate(-5.504 -1.97)"/><path class="e" d="M71.14,59.67,58.433,65.612H45.04l-6.3,15.747-11.709.218,31.4-69.853L71.14,59.67Zm-1.229-2.992L58.517,34.121,49.17,56.29h9.262Z" transform="translate(-7.768 -2.556)"/><path class="e" d="M63.671,11.724l.084,22.4L74.36,56.307H63.694L63.671,65.6l14.748.015,6.892,15.966,11.2.207Z" transform="translate(-13.007 -2.556)"/></g></g></svg>