<svg xmlns="http://www.w3.org/2000/svg" xmlns:xlink="http://www.w3.org/1999/xlink" viewBox="892.509 1437 106.179 106.218"><defs><style>.a{fill:#fff;}.b{fill:rgba(0,0,0,0.1);}.c{fill:url(#a);}.d{fill:url(#b);}.e{fill:url(#c);}.f{fill:url(#d);}.g{fill:url(#e);}.h{fill:url(#f);}.i{fill:url(#g);}</style><linearGradient id="a" x1="7.78" y1="9.735" x2="7.78" y2="9.747" gradientUnits="objectBoundingBox"><stop offset="0" stop-color="#81b4e0"/><stop offset="1" stop-color="#0c5a94"/></linearGradient><linearGradient id="b" x1="-5.807" y1="-8.503" x2="-5.807" y2="-7.788" gradientUnits="objectBoundingBox"><stop offset="0" stop-color="#f06b59"/><stop offset="1" stop-color="#df2227"/></linearGradient><linearGradient id="c" x1="-7.934" y1="-5.396" x2="-7.628" y2="-5.833" gradientUnits="objectBoundingBox"><stop offset="0" stop-color="#388b41"/><stop offset="1" stop-color="#4cb749"/></linearGradient><linearGradient id="d" x1="-9.456" y1="-5.851" x2="-9.863" y2="-6.582" gradientUnits="objectBoundingBox"><stop offset="0" stop-color="#e4b022"/><stop offset="0.3" stop-color="#fcd209"/></linearGradient><linearGradient id="e" x1="-25.4" y1="-12.39" x2="-25.4" y2="-13.378" gradientUnits="objectBoundingBox"><stop offset="0" stop-opacity="0.149"/><stop offset="0.3" stop-opacity="0.059"/><stop offset="1" stop-opacity="0.031"/></linearGradient><linearGradient id="f" x1="-23.781" y1="-13.434" x2="-24.904" y2="-12.734" xlink:href="#e"/><linearGradient id="g" x1="-11.419" y1="-51.45" x2="-11.341" y2="-55.608" xlink:href="#e"/></defs><g transform="translate(892.509 1437)"><ellipse class="a" cx="52.276" cy="52.276" rx="52.276" ry="52.276" transform="translate(0.941 1.035)"/><path class="b" d="M91.864,69.776a33.267,33.267,0,1,0-66.533,0h9.5a23.762,23.762,0,0,1,47.524,0" transform="translate(-5.381 -6.96)"/><ellipse class="b" cx="18.059" cy="18.059" rx="18.059" ry="18.059" transform="translate(37.535 41.905)"/><ellipse class="c" cx="19.485" cy="19.485" rx="19.485" ry="19.485" transform="translate(33.732 33.825)"/><path class="d" d="M104.3,31.578A53.226,53.226,0,0,0,12.578,25.4L33.965,62.468A23.758,23.758,0,0,1,56.3,31.579" transform="translate(-3.557 -2.03)"/><path class="e" d="M11.073,29.3a53.229,53.229,0,0,0,39.919,82.692L73.328,73.973a23.763,23.763,0,0,1-40.87-7.6" transform="translate(-2.052 -5.929)"/><path class="f" d="M59.158,113.024a53.226,53.226,0,0,0,51.8-76.514h-48A23.763,23.763,0,0,1,81.494,75" transform="translate(-10.218 -6.96)"/><path class="g" d="M12.578,29.062,33.965,66.13a23.761,23.761,0,0,1,.949-16.158L13.528,27.636" transform="translate(-3.557 -5.691)"/><path class="h" d="M59,119.447,81.335,81.428a23.766,23.766,0,0,1-13.782,8.078l-9.505,29.941" transform="translate(-10.059 -13.384)"/><path class="i" d="M111.593,36.508h-48a23.762,23.762,0,0,1,18.534,9.03l30.416-7.6" transform="translate(-10.853 -6.96)"/></g></svg>