<svg xmlns="http://www.w3.org/2000/svg" viewBox="357.266 1445 94.682 107.38"><defs><style>.a{fill:#1572b6;}.b{fill:#33a9dc;}.c{fill:#fff;}.d{fill:#ebebeb;}</style></defs><g transform="translate(357.266 1445)"><g transform="translate(0 0)"><path class="a" d="M17.376,98,8.76,1.352h94.682L94.817,97.983,56.043,108.732,17.376,98Z" transform="translate(-8.76 -1.352)"/><path class="b" d="M64,101.834l31.331-8.687L102.7,10.572H64v91.262Z" transform="translate(-16.659 -2.67)"/><path class="c" d="M64,47.426H79.686l1.083-12.138H64V23.435H93.724l-.285,3.18L90.525,59.279H64V47.426Z" transform="translate(-16.659 -4.51)"/><path class="d" d="M59.746,85.179l-.052.015-13.2-3.564-.844-9.454h-11.9l1.66,18.612,24.28,6.739.054-.015V85.179Z" transform="translate(-12.334 -11.48)"/><path class="c" d="M78.683,64.675,77.255,80.548l-13.22,3.569V96.449l24.3-6.734.178-2,2.062-23.037H78.683Z" transform="translate(-16.664 -10.407)"/><path class="d" d="M59.094,23.435V35.288H30.463l-.237-2.664-.54-6.009-.284-3.18H59.094Zm-.04,23.993V59.281H46.019l-.237-2.664-.541-6.009-.283-3.18Z" transform="translate(-11.712 -4.51)"/></g></g></svg>