<svg xmlns="http://www.w3.org/2000/svg" viewBox="1066 3936 50.471 63.089"><defs><style>.a,.b{fill:none;}.b{stroke:#647596;stroke-width:3px;}.c,.d{stroke:none;}.d{fill:#647596;}</style></defs><g transform="translate(-40 -219)"><g class="a" transform="translate(1106 4155)"><path class="c" d="M7.571,0H37.646c3.421,3.069,8.92,6.831,12.825,10.954V55.518A7.571,7.571,0,0,1,42.9,63.089H7.571A7.571,7.571,0,0,1,0,55.518V7.571A7.571,7.571,0,0,1,7.571,0Z"/><path class="d" d="M 42.90026092529297 60.088623046875 C 45.42052841186523 60.088623046875 47.47090530395508 58.03824615478516 47.47090530395508 55.51799011230469 L 47.47090530395508 12.1793384552002 C 45.28744125366211 10.02509021759033 42.62776947021484 7.914421558380127 40.24901580810547 6.026658058166504 C 38.92156600952148 4.973199844360352 37.65224838256836 3.96588134765625 36.52059936523438 3.000002384185791 L 7.570639610290527 3.000002384185791 C 5.050384044647217 3.000002384185791 3.000006198883057 5.050380229949951 3.000006198883057 7.570635795593262 L 3.000006198883057 55.51799011230469 C 3.000006198883057 58.03824615478516 5.050384044647217 60.088623046875 7.570639610290527 60.088623046875 L 42.90026092529297 60.088623046875 M 42.90026092529297 63.088623046875 L 7.570639610290527 63.088623046875 C 3.389484167098999 63.088623046875 6.300184395513497e-06 59.69913482666016 6.300184395513497e-06 55.51799011230469 L 6.300184395513497e-06 7.570635795593262 C 6.300184395513497e-06 3.389491319656372 3.389484167098999 2.319675104445196e-06 7.570639610290527 2.319675104445196e-06 L 37.64617156982422 2.319675104445196e-06 C 41.06674957275391 3.068791151046753 46.56637191772461 6.830702304840088 50.47090530395508 10.95425796508789 L 50.47090530395508 55.51799011230469 C 50.47090530395508 59.69913482666016 47.08141708374023 63.088623046875 42.90026092529297 63.088623046875 Z"/></g><line class="b" y2="13.879" transform="translate(1140.699 4156.893)"/><line class="b" x1="16.403" transform="translate(1139.437 4169.51)"/><line class="b" x2="17.665" transform="translate(1119.249 4173.296)"/><line class="b" x2="25.235" transform="translate(1119.249 4184.652)"/><line class="b" x2="25.235" transform="translate(1119.249 4198.531)"/></g></svg>