<svg xmlns="http://www.w3.org/2000/svg" viewBox="1374 1038 110.13 113.208"><defs><style>.a,.c,.e{fill:none;}.a,.b,.c{stroke:#647596;}.a{stroke-width:5px;}.b{fill:#fff;}.b,.c{stroke-width:3px;}.d{stroke:none;}</style></defs><g transform="translate(-40 -219)"><path class="a" d="M-673.751,279.24h45.823l29.654,29.654v48.9l-29.654,29.654h-45.823L-703.4,357.794v-48.9l29.654-29.654" transform="translate(2119.905 980.26)"/><g transform="translate(193 13)"><g class="b" transform="translate(1255 1278)"><circle class="d" cx="5.5" cy="5.5" r="5.5"/><circle class="e" cx="5.5" cy="5.5" r="4"/></g><g class="b" transform="translate(1255 1294)"><circle class="d" cx="5.5" cy="5.5" r="5.5"/><circle class="e" cx="5.5" cy="5.5" r="4"/></g><g class="b" transform="translate(1255 1310)"><circle class="d" cx="5.5" cy="5.5" r="5.5"/><circle class="e" cx="5.5" cy="5.5" r="4"/></g><g class="b" transform="translate(1271 1278)"><circle class="d" cx="5.5" cy="5.5" r="5.5"/><circle class="e" cx="5.5" cy="5.5" r="4"/></g><g class="b" transform="translate(1271 1294)"><circle class="d" cx="5.5" cy="5.5" r="5.5"/><circle class="e" cx="5.5" cy="5.5" r="4"/></g><g class="b" transform="translate(1271 1310)"><circle class="d" cx="5.5" cy="5.5" r="5.5"/><circle class="e" cx="5.5" cy="5.5" r="4"/></g><g class="b" transform="translate(1287 1278)"><circle class="d" cx="5.5" cy="5.5" r="5.5"/><circle class="e" cx="5.5" cy="5.5" r="4"/></g><g class="b" transform="translate(1287 1294)"><circle class="d" cx="5.5" cy="5.5" r="5.5"/><circle class="e" cx="5.5" cy="5.5" r="4"/></g><g class="b" transform="translate(1287 1310)"><circle class="d" cx="5.5" cy="5.5" r="5.5"/><circle class="e" cx="5.5" cy="5.5" r="4"/></g><line class="c" x1="8" transform="translate(1280.5 1283.5)"/><line class="c" x1="9" y2="10" transform="translate(1263.5 1286.5)"/><line class="c" x2="9" y2="10" transform="translate(1279.5 1302.5)"/><line class="c" x2="8" transform="translate(1264.5 1315.5)"/></g></g></svg>