<svg xmlns="http://www.w3.org/2000/svg" viewBox="1018.531 1445 108.184 108.183"><defs><style>.a{fill:#f34f29;}</style></defs><g transform="translate(1018.531 1445)"><path class="a" d="M107.026,50.156,59.792,2.924a6.968,6.968,0,0,0-9.853,0l-9.808,9.809L52.573,25.175A8.274,8.274,0,0,1,63.051,35.722L75.042,47.714a8.279,8.279,0,1,1-4.965,4.673L58.894,41.205l0,29.43a8.274,8.274,0,1,1-6.816-.242v-29.7a8.3,8.3,0,0,1-4.5-10.873L35.311,17.552,2.923,49.938a6.97,6.97,0,0,0,0,9.856l47.235,47.233a6.97,6.97,0,0,0,9.855,0l47.014-47.013a6.972,6.972,0,0,0,0-9.856Z" transform="translate(-0.883 -0.884)"/></g></svg>