<svg xmlns="http://www.w3.org/2000/svg" viewBox="956.944 3936 65.972 64.343"><defs><style>.a,.b{fill:#181616;}.a{fill-rule:evenodd;}</style></defs><g transform="translate(956.944 3936)"><path class="a" d="M36.6,5.1A32.99,32.99,0,0,0,26.17,69.389c1.648.306,2.253-.716,2.253-1.587,0-.787-.031-3.385-.045-6.141-9.177,2-11.113-3.892-11.113-3.892-1.5-3.813-3.662-4.826-3.662-4.826-2.993-2.047.226-2,.226-2,3.312.232,5.056,3.4,5.056,3.4,2.942,5.042,7.717,3.584,9.6,2.742a7.027,7.027,0,0,1,2.094-4.411c-7.327-.833-15.029-3.662-15.029-16.3a12.768,12.768,0,0,1,3.4-8.854,11.846,11.846,0,0,1,.319-8.729s2.769-.887,9.073,3.381a31.263,31.263,0,0,1,16.521,0c6.3-4.268,9.062-3.381,9.062-3.381a11.837,11.837,0,0,1,.324,8.729,12.743,12.743,0,0,1,3.395,8.854c0,12.669-7.717,15.458-15.062,16.275,1.184,1.024,2.238,3.032,2.238,6.108,0,4.414-.038,7.966-.038,9.052,0,.878.594,1.906,2.266,1.582A32.99,32.99,0,0,0,36.6,5.1Z" transform="translate(-3.612 -5.103)"/><path class="b" d="M25.75,91.342c-.073.164-.33.213-.565.1s-.374-.33-.3-.495.329-.216.568-.1.377.333.293.5Zm-.406-.3,1.742,1.791c-.157.146-.464.078-.673-.153a.5.5,0,0,1-.1-.685c.163-.145.461-.076.677.153s.258.537.093.686Zm-.314-.338,1.615,2.237c-.2.141-.533.009-.737-.284s-.2-.646.005-.787.53-.014.737.277.2.65-.005.793Zm0,0,1.781,1.836c-.18.2-.566.146-.848-.126a.636.636,0,0,1-.187-.843c.184-.2.571-.144.854.126s.375.645.182.843Zm0,0,2.458,1.066c-.08.258-.451.376-.825.265s-.617-.415-.541-.676.45-.382.826-.265S32.7,97.371,32.626,97.634Zm0,0,2.7.2c.009.272-.308.5-.7.5s-.714-.211-.718-.479.31-.5.7-.5.713.211.713.481Zm0,0,2.512-.427c.047.265-.226.537-.615.61s-.737-.094-.787-.357.231-.545.613-.615.74.093.789.362Zm0,0" transform="translate(-13.256 -43.982)"/></g></svg>