<svg xmlns="http://www.w3.org/2000/svg" viewBox="233 1445 94.216 106.849"><defs><style>.a{fill:#e44d26;}.b{fill:#f16529;}.c{fill:#ebebeb;}.d{fill:#fff;}</style></defs><g transform="translate(233 1445)"><path class="a" d="M17.606,97.83,9.032,1.661h94.216L94.664,97.815l-38.581,10.7Z" transform="translate(-9.032 -1.661)"/><path class="b" d="M64,101.648,95.176,93l7.335-82.168H64Z" transform="translate(-16.892 -2.973)"/><path class="c" d="M59.065,48.472H43.457L42.379,36.393H59.065V24.6H29.489l.283,3.164,2.9,32.5H59.065Zm0,30.632-.052.015L45.877,75.57l-.839-9.406H33.2L34.85,84.684,59.011,91.39l.054-.015Z" transform="translate(-11.957 -4.941)"/><path class="d" d="M63.952,48.472V60.267H78.476l-1.369,15.3L63.952,79.114V91.385l24.18-6.7.177-1.993,2.772-31.052.287-3.167H63.952Zm0-23.873V36.393h28.49l.237-2.65.538-5.98L93.5,24.6Z" transform="translate(-16.885 -4.941)"/></g></svg>