<svg xmlns="http://www.w3.org/2000/svg" viewBox="495 1447 105 105"><defs><style>.a{fill:#f0db4f;}</style></defs><path class="a" d="M2,1V106H107V1ZM57.54,90.471A12.416,12.416,0,0,1,49.6,96.688a19.091,19.091,0,0,1-14.054-1.73,15.805,15.805,0,0,1-5.8-6.637l8-4.9a5.061,5.061,0,0,1,.56.9,8.444,8.444,0,0,0,3.628,3.767c1.7.58,5.427.95,6.867-2.039.879-1.52.6-6.408.6-11.815,0-8.5.039-16.958.039-25.358h9.836c0,9.24.05,17.991,0,27.008.021,5.527.5,10.455-1.739,14.583Zm40.8-2.779c-3.419,11.694-22.48,12.074-30.1,4.348a17.773,17.773,0,0,1-3.578-4.868c4.048-2.328,4.048-2.328,7.987-4.607,2.139,3.289,4.118,5.1,7.677,5.837,4.828.59,9.686-1.069,8.6-6.2C87.807,78.016,79.04,77,73.073,72.518c-6.057-4.068-7.477-13.953-2.5-19.6a14.052,14.052,0,0,1,7.457-4.4l3.1-.4c5.948-.12,9.666,1.451,12.4,4.5a19.631,19.631,0,0,1,2.538,3.4c-3.168,2.019-3.158,2-7.7,4.938a7.323,7.323,0,0,0-4.278-3.968c-2.639-.8-5.967.07-6.658,2.859a5.429,5.429,0,0,0,.191,3.079c1.069,2.439,4.658,3.5,7.877,4.978,9.266,3.758,12.4,7.788,13.164,12.584a14.425,14.425,0,0,1-.319,7.208Z" transform="translate(493 1446)"/></svg>