<svg xmlns="http://www.w3.org/2000/svg" viewBox="849.883 3936 66.64 66.641"><defs><style>.a{fill:#0076b2;}.b{fill:#fff;}</style></defs><g transform="translate(849.883 3936)"><path class="a" d="M64.724,3H7.916A4.867,4.867,0,0,0,3,7.807V64.844a4.867,4.867,0,0,0,4.916,4.8H64.724a4.878,4.878,0,0,0,4.916-4.812V7.79A4.878,4.878,0,0,0,64.724,3Z" transform="translate(-3 -3)"/><path class="b" d="M20.407,35.571H30.3V67.4H20.407ZM25.355,19.73a5.735,5.735,0,1,1-5.735,5.73,5.735,5.735,0,0,1,5.735-5.73" transform="translate(-10.542 -10.591)"/><path class="b" d="M50.53,48.09h9.483v4.37h.131A10.392,10.392,0,0,1,69.5,47.32c10.018-.022,11.875,6.571,11.875,15.12V79.919H71.483V64.433c0-3.687-.066-8.434-5.14-8.434s-5.938,4.02-5.938,8.193V79.919H50.53Z" transform="translate(-24.568 -23.111)"/></g></svg>