<svg xmlns="http://www.w3.org/2000/svg" viewBox="1427.684 1445 107.982 108.225"><defs><style>.a{fill:#80b5e2;fill-rule:evenodd;}</style></defs><g transform="translate(-40 -214)"><path class="a" d="M108.311.726C77.267.716,46.363.717,15.319.717c-4.44,0-8.957,0-13.4.009A2.234,2.234,0,0,0,1,.929V108.942H108.982V.929c0-.071-.355-.2-.672-.2ZM97.4,98.372q-41.96-.049-83.911-.026c-1.351,0-1.345,0-1.345-1.394V13.139c0-1.377-.013-1.039,1.352-1.039H97.306c1.4,0,1.393-.339,1.393,1.106V55.06q0,20.979.031,41.958c0,1.065-.248,1.354-1.333,1.353ZM48.838,34.078c-5.715-1.339-11.467-.679-17.213-.092-1.22.125-1.453.647-1.449,1.729.037,13.032-.038,26.065-.038,39.1v.706h7.713V60.212c4.285.321,8.207.245,12.04-1.123,6.144-2.192,9.215-6.951,8.883-13.9C58.506,39.578,54.981,35.517,48.838,34.078ZM47.164,53.226c-2.737,1.334-5.648,1.3-8.574.907a.921.921,0,0,1-.58-.672c-.034-4.569-.026-9.137-.026-13.83a19.231,19.231,0,0,1,7.766.015,6.513,6.513,0,0,1,5.314,5.928,7.228,7.228,0,0,1-3.9,7.652ZM75.7,59.316c-1.259-.69-2.64-1.154-3.947-1.759-1.208-.56-2.428-1.111-3.577-1.779a2.436,2.436,0,0,1-1.166-2.238,3.037,3.037,0,0,1,3-3.083,16.335,16.335,0,0,1,4.28.291,24.3,24.3,0,0,1,3.5,1.2l1.514-5.373a18.256,18.256,0,0,0-8.814-1.808,13.214,13.214,0,0,0-7.158,2.227c-4.065,2.767-6.048,10.119.044,14.069a43.483,43.483,0,0,0,5.014,2.435c1.044.5,2.133.925,3.12,1.519a3.111,3.111,0,0,1,1.452,3.377,2.8,2.8,0,0,1-2.43,2.463,13.606,13.606,0,0,1-4.386.123,56.416,56.416,0,0,1-5.977-1.7c-.365,1.363-.712,2.87-1.186,4.336-.26.8-.107,1.2.681,1.515a20.53,20.53,0,0,0,14.639.614,8.909,8.909,0,0,0,1.4-16.429Z" transform="translate(1466.684 1658.283)"/></g></svg>