<svg xmlns="http://www.w3.org/2000/svg" xmlns:xlink="http://www.w3.org/1999/xlink" viewBox="642.915 1448 103.18 102.894"><defs><style>.a{fill:url(#a);}.b{fill:url(#b);}.c{fill:url(#c);}.d{fill:url(#d);}.e{fill:url(#e);}.f{fill:url(#f);}.g{fill:url(#g);}.h{fill:url(#h);}.i{fill:#fff;}.j{fill:url(#i);}.k{fill:url(#j);}.l{fill:url(#k);}.m{fill:url(#l);}.n{fill:#9e1209;}.o{fill:url(#m);}.p{fill:url(#n);}.q{fill:url(#o);}.r{fill:url(#p);}</style><linearGradient id="a" x1="1.343" y1="24.574" x2="1.078" y2="25.042" gradientUnits="objectBoundingBox"><stop offset="0" stop-color="#fb7655"/><stop offset="0.41" stop-color="#e42b1e"/><stop offset="0.99" stop-color="#900"/><stop offset="1" stop-color="#900"/></linearGradient><linearGradient id="b" x1="2.834" y1="44.595" x2="1.685" y2="45.011" gradientUnits="objectBoundingBox"><stop offset="0" stop-color="#871101"/><stop offset="0.99" stop-color="#911209"/><stop offset="1" stop-color="#911209"/></linearGradient><linearGradient id="c" x1="1.292" y1="218.311" x2="0.924" y2="220.426" xlink:href="#b"/><linearGradient id="d" x1="2.042" y1="51.4" x2="2.207" y2="50.681" gradientUnits="objectBoundingBox"><stop offset="0" stop-color="#fff"/><stop offset="0.23" stop-color="#e57252"/><stop offset="0.46" stop-color="#de3b20"/><stop offset="0.99" stop-color="#a60003"/><stop offset="1" stop-color="#a60003"/></linearGradient><linearGradient id="e" x1="1.417" y1="48.04" x2="1.454" y2="47.373" gradientUnits="objectBoundingBox"><stop offset="0" stop-color="#fff"/><stop offset="0.23" stop-color="#e4714e"/><stop offset="0.56" stop-color="#be1a0d"/><stop offset="0.99" stop-color="#a80d00"/><stop offset="1" stop-color="#a80d00"/></linearGradient><linearGradient id="f" x1="1.436" y1="79.143" x2="1.561" y2="78.374" gradientUnits="objectBoundingBox"><stop offset="0" stop-color="#fff"/><stop offset="0.18" stop-color="#e46342"/><stop offset="0.4" stop-color="#c82410"/><stop offset="0.99" stop-color="#a80d00"/><stop offset="1" stop-color="#a80d00"/></linearGradient><linearGradient id="g" x1="1.557" y1="217.94" x2="2.279" y2="218.991" gradientUnits="objectBoundingBox"><stop offset="0" stop-color="#fff"/><stop offset="0.54" stop-color="#c81f11"/><stop offset="0.99" stop-color="#bf0905"/><stop offset="1" stop-color="#bf0905"/></linearGradient><linearGradient id="h" x1="5.809" y1="69.31" x2="6.04" y2="68.731" gradientUnits="objectBoundingBox"><stop offset="0" stop-color="#fff"/><stop offset="0.31" stop-color="#de4024"/><stop offset="0.99" stop-color="#bf190b"/><stop offset="1" stop-color="#bf190b"/></linearGradient><linearGradient id="i" x1="0.429" y1="32.328" x2="1.678" y2="33.615" gradientUnits="objectBoundingBox"><stop offset="0" stop-color="#bd0012"/><stop offset="0.07" stop-color="#fff"/><stop offset="0.17" stop-color="#fff"/><stop offset="0.27" stop-color="#c82f1c"/><stop offset="0.33" stop-color="#820c01"/><stop offset="0.46" stop-color="#a31601"/><stop offset="0.72" stop-color="#b31301"/><stop offset="0.99" stop-color="#e82609"/><stop offset="1" stop-color="#e82609"/></linearGradient><linearGradient id="j" x1="1.379" y1="50.665" x2="0.911" y2="50.816" gradientUnits="objectBoundingBox"><stop offset="0" stop-color="#8c0c01"/><stop offset="0.54" stop-color="#990c00"/><stop offset="0.99" stop-color="#a80d0e"/><stop offset="1" stop-color="#a80d0e"/></linearGradient><linearGradient id="k" x1="1.863" y1="48.112" x2="1.301" y2="48.561" gradientUnits="objectBoundingBox"><stop offset="0" stop-color="#7e110b"/><stop offset="0.99" stop-color="#9e0c00"/><stop offset="1" stop-color="#9e0c00"/></linearGradient><linearGradient id="l" x1="2.19" y1="64.176" x2="1.86" y2="64.52" gradientUnits="objectBoundingBox"><stop offset="0" stop-color="#79130d"/><stop offset="0.99" stop-color="#9e120b"/><stop offset="1" stop-color="#9e120b"/></linearGradient><radialGradient id="m" cx="89.19" cy="124.539" r="50.188" gradientTransform="matrix(0.523, 0, 0, -0.523, 5.759, 124.193)" gradientUnits="userSpaceOnUse"><stop offset="0" stop-color="#a80d00"/><stop offset="0.99" stop-color="#7e0e08"/><stop offset="1" stop-color="#7e0e08"/></radialGradient><radialGradient id="n" cx="47.933" cy="223.958" r="44.783" gradientTransform="matrix(0.778, 0, 0, -0.778, 1.184, 259.764)" gradientUnits="userSpaceOnUse"><stop offset="0" stop-color="#a30c00"/><stop offset="0.99" stop-color="#800e08"/><stop offset="1" stop-color="#800e08"/></radialGradient><linearGradient id="o" x1="3.071" y1="60.222" x2="2.536" y2="61.119" gradientUnits="objectBoundingBox"><stop offset="0" stop-color="#8b2114"/><stop offset="0.43" stop-color="#9e100a"/><stop offset="0.99" stop-color="#b3100c"/><stop offset="1" stop-color="#b3100c"/></linearGradient><linearGradient id="p" x1="1.596" y1="162.404" x2="2.212" y2="161.753" gradientUnits="objectBoundingBox"><stop offset="0" stop-color="#b31000"/><stop offset="0.44" stop-color="#910f08"/><stop offset="0.99" stop-color="#791c12"/><stop offset="1" stop-color="#791c12"/></linearGradient></defs><g transform="translate(642.915 1448)"><path class="a" d="M87.249,75.354,28.34,110.334l76.276-5.176,5.875-76.912Z" transform="translate(-7.311 -7.441)"/><path class="b" d="M113.415,110.38l-6.555-45.249L89,88.711Z" transform="translate(-15.985 -12.715)"/><path class="c" d="M104.872,117.3l-48.03-3.77-28.2,8.9Z" transform="translate(-7.353 -19.636)"/><path class="d" d="M26.313,117.369l12-39.308-26.4,5.646Z" transform="translate(-4.961 -14.564)"/><path class="e" d="M81.882,85.581,70.842,42.337,39.248,71.953Z" transform="translate(-8.871 -9.455)"/><path class="f" d="M114.9,38.977,85.038,14.585,76.722,41.472Z" transform="translate(-14.229 -5.487)"/><path class="g" d="M100.2,4.415,82.632,14.123,71.551,4.285Z" transform="translate(-13.49 -4.014)"/><path class="h" d="M3.8,95.127l7.358-13.42L5.207,65.72Z" transform="translate(-3.802 -12.799)"/><path class="i" d="M4.981,56.385l5.988,16.987,26.023-5.838L66.7,39.923l8.384-26.631-13.2-9.322-22.445,8.4C32.368,18.947,18.647,31.96,18.152,32.206S9.089,48.656,4.981,56.385Z" transform="translate(-3.971 -3.969)"/><path class="j" d="M26.437,26.3C41.762,11.105,61.52,2.126,69.1,9.777s-.458,26.241-15.784,41.432S18.479,75.872,10.9,68.222,11.111,41.491,26.437,26.3Z" transform="translate(-4.398 -4.402)"/><path class="k" d="M28.717,117.329,40.621,77.9,80.159,90.6C65.864,104,49.964,115.335,28.717,117.329Z" transform="translate(-7.365 -14.54)"/><path class="l" d="M77.062,45.406l10.15,40.2c11.941-12.555,22.658-26.054,27.907-42.75L77.062,45.406Z" transform="translate(-14.278 -9.53)"/><path class="m" d="M116.364,37.572c4.062-12.259,5-29.845-14.155-33.11L86.492,13.143l29.872,24.429Z" transform="translate(-15.626 -4.039)"/><path class="n" d="M3.8,97.687c.562,20.232,15.16,20.533,21.378,20.711L10.817,84.855,3.8,97.687Z" transform="translate(-3.802 -15.535)"/><path class="o" d="M77.128,45.484C86.3,51.124,104.8,62.451,105.172,62.66c.583.328,7.974-12.463,9.651-19.691L77.128,45.484Z" transform="translate(-14.287 -9.546)"/><path class="p" d="M42.589,77.9,58.5,108.6A102.9,102.9,0,0,0,82.032,90.619Z" transform="translate(-9.348 -14.54)"/><path class="q" d="M11.538,84.9,9.283,111.754c4.254,5.811,10.108,6.317,16.249,5.864C21.089,106.562,12.216,84.455,11.538,84.9Z" transform="translate(-4.586 -15.541)"/><path class="r" d="M86.384,13.207,118,17.643c-1.687-7.15-6.869-11.764-15.7-13.206Z" transform="translate(-15.611 -4.036)"/></g></svg>