<svg xmlns="http://www.w3.org/2000/svg" viewBox="1292.278 1446 105.728 104.87"><defs><style>.a{fill:#80cade;}.b{fill:#db015c;}.c{fill:#e8a900;}.d{fill:#41b088;}.e{fill:#ca161a;}.f{fill:#3b1d37;}.g{fill:#69852c;}.h{fill:#118f79;}</style></defs><g transform="translate(1292.278 1446)"><path class="a" d="M11.31,60.411a8.741,8.741,0,0,1-8.519-6c-.051-.146-.086-.283-.129-.42a9.161,9.161,0,0,1,5.93-11.175L83.461,17.732a10.13,10.13,0,0,1,2.734-.4,8.973,8.973,0,0,1,8.75,6.119l.111.36c1.4,4.893-2.083,9.264-6.248,10.661L14.352,59.9a9.684,9.684,0,0,1-3.042.514Z" transform="translate(-2.318 -5.016)"/><path class="b" d="M25.859,103.3a8.733,8.733,0,0,1-8.57-5.9c-.043-.137-.086-.274-.129-.42a9.221,9.221,0,0,1,5.948-11.287L97.958,60.377a9.633,9.633,0,0,1,2.974-.5,9.041,9.041,0,0,1,8.724,6.1l.111.377a9.47,9.47,0,0,1-1.1,7.576c-1.071,1.671-4.448,3.137-4.448,3.137l-75.142,25.71a10.284,10.284,0,0,1-3.179.54Z" transform="translate(-4.389 -11.101)"/><path class="c" d="M94.374,95.328a9.187,9.187,0,0,1-8.8-6.265L60.591,14.855l-.129-.42a9.2,9.2,0,0,1,17.56-5.442L103,83.193l.069.24a9.2,9.2,0,0,1-8.716,11.9Z" transform="translate(-10.592 -2.962)"/><path class="d" d="M51.032,109.878a9.2,9.2,0,0,1-8.8-6.282L17.249,29.405l-.129-.411A9.187,9.187,0,0,1,23.034,17.75a9.333,9.333,0,0,1,2.862-.48,9.187,9.187,0,0,1,8.8,6.265L59.671,97.743c.043.129.086.274.129.411a9.2,9.2,0,0,1-8.767,11.724h0Z" transform="translate(-4.384 -5.008)"/><path class="e" d="M84.75,87.425l17.389-5.956L96.474,64.56,79,70.456Z" transform="translate(-13.283 -11.77)"/><path class="f" d="M41.489,102.168,58.9,96.212,53.17,79.2,35.73,85.1Z" transform="translate(-7.096 -13.864)"/><path class="g" d="M70.3,44.479l17.423-5.948L82.089,21.82,64.64,27.665Z" transform="translate(-11.23 -5.658)"/><path class="h" d="M27.04,59.188l17.4-5.922-5.7-16.926L21.29,42.185Z" transform="translate(-5.031 -7.735)"/></g></svg>